<svg xmlns="http://www.w3.org/2000/svg" viewBox="0 0 11.11 8.73"><defs><style>.cls-1{fill:#fff;}</style></defs><g id="Layer_2" data-name="Layer 2"><g id="Layer_9" data-name="Layer 9"><path class="cls-1" d="M1.07,2.69l1.27.88L4,4.7l.26.19.34.24a3.71,3.71,0,0,0,.32.2,2.84,2.84,0,0,0,.36.17,1.18,1.18,0,0,0,.31,0h0a1.24,1.24,0,0,0,.31,0,2.84,2.84,0,0,0,.36-.17l.32-.2.33-.24.27-.19,2.9-2a3,3,0,0,0,.75-.76A1.67,1.67,0,0,0,11.11,1a1,1,0,0,0-.3-.7,1,1,0,0,0-.7-.29H1A.88.88,0,0,0,.26.32,1.29,1.29,0,0,0,0,1.13,1.4,1.4,0,0,0,.34,2a2.92,2.92,0,0,0,.73.72Z"/><path class="cls-1" d="M10.49,3.35C9.13,4.27,8.1,5,7.4,5.49l-.57.41a4.65,4.65,0,0,1-.59.29,1.64,1.64,0,0,1-.68.16h0a1.72,1.72,0,0,1-.69-.16,4.44,4.44,0,0,1-.58-.29l-.57-.41C3.15,5.08,2.12,4.37.63,3.35A2.73,2.73,0,0,1,0,2.81V7.73a1,1,0,0,0,.29.7,1,1,0,0,0,.7.3h9.12a1,1,0,0,0,1-1V2.81a3.59,3.59,0,0,1-.62.54Z"/></g></g></svg>