<svg xmlns="http://www.w3.org/2000/svg" viewBox="0 0 22.33 22.33"><defs><style>.cls-1{fill:#93a2a7;}.cls-2{fill:#fff;}</style></defs><g id="Layer_2" data-name="Layer 2"><g id="Layer_9" data-name="Layer 9"><circle class="cls-1" cx="11.17" cy="11.17" r="11.17"/><path class="cls-2" d="M8.85,6.5,9.6,7.63a.53.53,0,0,1-.11.7l-.93.72a.51.51,0,0,0-.14.65A8.47,8.47,0,0,0,10.23,12a8.25,8.25,0,0,0,2.34,1.81.53.53,0,0,0,.66-.14l.72-.92a.5.5,0,0,1,.69-.12l1.16.78,1.31.87a.53.53,0,0,1,.16.7l-.62,1a1.29,1.29,0,0,1-.74.58c-1,.28-3.31.34-7-3.31S5.36,7.4,5.65,6.37a1.27,1.27,0,0,1,.57-.75l1-.62A.51.51,0,0,1,8,5.16Z"/></g></g></svg>