<svg xmlns="http://www.w3.org/2000/svg" width="16" height="13" viewBox="0 0 16 13"><g><g><path fill="#93a2a7" d="M6.897 1.61c-.734.42-1.328.782-1.78 1.086A8.242 8.242 0 0 0 3.732 3.9a5.522 5.522 0 0 0-1.008 1.472c-.234.513-.398 1.175-.492 1.985h1.125c.97 0 1.731.238 2.285.715.555.476.832 1.176.832 2.098 0 .656-.246 1.27-.738 1.84-.492.57-1.168.855-2.027.855-1.344 0-2.305-.44-2.883-1.32-.578-.882-.867-2.04-.867-3.476 0-1.014.218-1.938.656-2.77A9.822 9.822 0 0 1 2.21 3.061c.64-.67 1.32-1.239 2.04-1.708C4.966.886 5.57.505 6.052.208zm8.672 0c-.734.42-1.328.782-1.78 1.086A8.242 8.242 0 0 0 12.404 3.9c-.453.482-.793.978-1.02 1.483-.226.506-.386 1.164-.48 1.974h1.125c.97 0 1.73.238 2.285.715.555.476.832 1.176.832 2.098 0 .656-.246 1.27-.738 1.84-.492.57-1.168.855-2.028.855-1.343 0-2.304-.44-2.882-1.32-.578-.882-.867-2.04-.867-3.476 0-1.014.218-1.938.656-2.77a9.822 9.822 0 0 1 1.594-2.236c.64-.67 1.32-1.239 2.04-1.708.717-.468 1.32-.849 1.803-1.146z"/></g></g></svg>