<svg xmlns="http://www.w3.org/2000/svg" viewBox="0 0 22.33 22.33"><defs><style>.cls-1{fill:#fff;}.cls-2{fill:#182751;}</style></defs><g id="Layer_2" data-name="Layer 2"><g id="Layer_9" data-name="Layer 9"><circle class="cls-1" cx="11.17" cy="11.17" r="11.17"/><path class="cls-2" d="M16.15,15.12l-2.63-2.73a4.41,4.41,0,0,0,1.05-2.86A4.46,4.46,0,1,0,10.11,14a4.39,4.39,0,0,0,2.55-.81l2.65,2.76a.59.59,0,0,0,.42.17.55.55,0,0,0,.4-.16.58.58,0,0,0,0-.82Zm-6-8.88A3.29,3.29,0,1,1,6.82,9.53a3.29,3.29,0,0,1,3.29-3.29Z"/></g></g></svg>