<svg xmlns="http://www.w3.org/2000/svg" viewBox="0 0 15.61 12.66"><defs><style>.cls-1{fill:#00758d;}</style></defs><g id="Layer_2" data-name="Layer 2"><g id="Layer_2-2" data-name="Layer 2"><path class="cls-1" d="M6.94,1.4c-.74.42-1.33.78-1.78,1.09a7.76,7.76,0,0,0-1.39,1.2,5.64,5.64,0,0,0-1,1.47,6.78,6.78,0,0,0-.5,2H3.4a3.4,3.4,0,0,1,2.28.71A2.61,2.61,0,0,1,6.52,10a2.77,2.77,0,0,1-.74,1.84,2.54,2.54,0,0,1-2,.86A3.17,3.17,0,0,1,.87,11.33,6.22,6.22,0,0,1,0,7.86,5.84,5.84,0,0,1,.66,5.09,9.75,9.75,0,0,1,2.25,2.85a11.09,11.09,0,0,1,2-1.7L6.09,0Zm8.67,0c-.73.42-1.33.78-1.78,1.09a7.72,7.72,0,0,0-1.38,1.2,5.18,5.18,0,0,0-1,1.48,6.67,6.67,0,0,0-.48,2h1.12a3.45,3.45,0,0,1,2.29.71,2.64,2.64,0,0,1,.83,2.1,2.77,2.77,0,0,1-.74,1.84,2.54,2.54,0,0,1-2,.86,3.17,3.17,0,0,1-2.88-1.33,6.22,6.22,0,0,1-.87-3.47,5.84,5.84,0,0,1,.66-2.77,10.07,10.07,0,0,1,1.59-2.24,11.09,11.09,0,0,1,2-1.7C13.68.68,14.28.3,14.77,0Z"/></g></g></svg>